<?xml version="1.0" encoding="UTF-8" standalone="no"?>
<svg width="128px" height="128px" viewBox="0 0 128 128" version="1.1" xmlns="http://www.w3.org/2000/svg" xmlns:xlink="http://www.w3.org/1999/xlink" xmlns:sketch="http://www.bohemiancoding.com/sketch/ns">
    <!-- Generator: Sketch 3.1.1 (8761) - http://www.bohemiancoding.com/sketch -->
    <title>icon</title>
    <desc>Created with Sketch.</desc>
    <defs>
        <linearGradient x1="0%" y1="100%" x2="100%" y2="0%" id="linearGradient-1">
            <stop stop-color="#E2C24A" offset="0%"></stop>
            <stop stop-color="#E24A6A" offset="100%"></stop>
        </linearGradient>
    </defs>
    <g id="Page-1" stroke="none" stroke-width="1" fill="none" fill-rule="evenodd" sketch:type="MSPage">
        <g id="icon" sketch:type="MSArtboardGroup">
            <rect id="Rectangle-2" fill="url(#linearGradient-1)" sketch:type="MSShapeGroup" x="0" y="0" width="128" height="128"></rect>
            <path d="M79.7802818,63.0079598 L86.044952,63.0079598 C86.4465334,63.0079598 86.8481148,63.4168481 86.8481148,63.8257365 C86.8481148,64.3164025 86.5268497,64.6435132 86.044952,64.6435132 L79.7802818,64.6435132 C79.3787004,64.6435132 78.977119,64.2346249 78.977119,63.8257365 C79.0574353,63.3350705 79.3787004,63.0079598 79.7802818,63.0079598 L79.7802818,63.0079598 Z M88.6953893,63.0897374 L93.0324687,63.0079598 C94.4781618,63.0079598 94.1568966,64.7252909 93.0324687,64.7252909 L88.6953893,64.8070686 C88.2938079,64.8070686 87.9725428,64.3981802 87.9725428,63.9075142 C87.8922265,63.4986258 88.2134916,63.0897374 88.6953893,63.0897374 L88.6953893,63.0897374 Z M78.7361701,55.4844139 L82.1897703,54.1759711 C83.4748309,53.6853051 83.9567286,55.3208585 82.7519843,55.7297469 L79.2983841,57.0381896 C78.0936399,57.5288557 77.5314259,55.8933022 78.7361701,55.4844139 L78.7361701,55.4844139 Z M87.3300125,52.1315293 L90.9442453,50.8230865 C92.2293058,50.3324205 92.4702547,52.0497516 91.5867756,52.3768623 L87.6512777,53.8488604 C86.7677985,54.1759711 86.044952,52.6221953 87.3300125,52.1315293 L87.3300125,52.1315293 Z M84.920524,53.0310837 C85.4024217,53.0310837 85.8040031,53.439972 85.8040031,53.9306381 C85.8040031,54.4213041 85.4024217,54.8301925 84.920524,54.8301925 C84.4386263,54.8301925 84.0370449,54.4213041 84.0370449,53.9306381 C84.0370449,53.439972 84.4386263,53.0310837 84.920524,53.0310837 L84.920524,53.0310837 Z M90.6229802,77.2372749 L86.607166,75.5199437 C85.482738,75.0292777 86.044952,73.4755019 87.2496962,73.9661679 L91.2655104,75.6834991 C92.3899384,76.1741651 91.9080407,77.8097186 90.6229802,77.2372749 L90.6229802,77.2372749 Z M83.9567286,74.3750563 L79.6196493,72.6577252 C79.2180678,72.4941698 78.977119,72.0035038 79.2180678,71.5128378 C79.3787004,71.1039494 79.8605981,70.8586164 80.3424958,71.1039494 L84.6795751,72.8212805 C85.0811566,72.9848359 85.3221054,73.4755019 85.0811566,73.9661679 C84.920524,74.3750563 84.4386263,74.5386117 83.9567286,74.3750563 L83.9567286,74.3750563 Z M36.8913862,64.0710695 L43.7182704,64.0710695 C44.1198518,64.0710695 44.4411169,63.6621812 44.4411169,63.2532928 C44.4411169,62.7626268 44.1198518,62.4355161 43.7182704,62.4355161 L36.8913862,62.4355161 C36.4898048,62.4355161 36.1685397,62.8444044 36.1685397,63.2532928 C36.1685397,63.6621812 36.4898048,64.0710695 36.8913862,64.0710695 L36.8913862,64.0710695 Z M46.2883914,63.9892918 L50.4648382,64.0710695 C50.8664196,64.0710695 51.1876848,63.6621812 51.1876848,63.1715151 C51.1876848,62.6808491 50.8664196,62.3537384 50.4648382,62.3537384 L46.2883914,62.2719607 C45.88681,62.2719607 45.5655449,62.6808491 45.5655449,63.1715151 C45.4852286,63.5804035 45.8064937,63.9075142 46.2883914,63.9892918 L46.2883914,63.9892918 Z M36.8913862,75.6017214 L42.0316284,73.6390572 C42.4332098,73.4755019 43.0757401,73.6390572 43.0757401,74.1297233 C43.0757401,74.6203893 42.9954238,75.0292777 42.5938424,75.192833 L37.4536002,77.1554972 C37.0520188,77.3190525 36.4094885,77.1554972 36.4094885,76.6648311 C36.4094885,76.2559428 36.4898048,75.7652767 36.8913862,75.6017214 L36.8913862,75.6017214 Z M47.1718706,71.6763931 L50.7861033,70.3679503 C52.0711639,69.8772843 52.3121127,71.5946154 51.4286336,71.9217261 L47.4931357,73.3937242 C46.6096566,73.6390572 45.88681,72.0852815 47.1718706,71.6763931 L47.1718706,71.6763931 Z M44.762382,72.4941698 C45.2442797,72.4941698 45.6458612,72.9030582 45.6458612,73.3937242 C45.6458612,73.8843903 45.2442797,74.2932786 44.762382,74.2932786 C44.2804843,74.2932786 43.8789029,73.8843903 43.8789029,73.3937242 C43.8789029,72.9030582 44.2804843,72.4941698 44.762382,72.4941698 L44.762382,72.4941698 Z M48.9388288,55.7297469 L44.2804843,53.8488604 C43.1560564,53.3581944 43.7182704,51.8044186 44.9230146,52.2950846 L49.5813591,54.1759711 C50.7057871,54.5848595 50.2238894,56.2204129 48.9388288,55.7297469 L48.9388288,55.7297469 Z M41.7103633,52.6221953 L37.9354979,51.1501972 C36.7307537,50.6595312 37.2929676,49.0239777 38.5780282,49.5964214 L42.3528935,51.0684195 C42.7544749,51.2319749 42.9954238,51.7226409 42.7544749,52.2133069 C42.6741587,52.6221953 42.192261,52.7857507 41.7103633,52.6221953 L41.7103633,52.6221953 Z M34.8031628,62.3537384 C35.2850605,62.3537384 35.6063257,62.7626268 35.6063257,63.2532928 C35.6063257,63.7439588 35.2047443,64.1528472 34.8031628,64.1528472 C34.3212651,64.1528472 34,63.7439588 34,63.2532928 C34,62.7626268 34.3212651,62.3537384 34.8031628,62.3537384 L34.8031628,62.3537384 Z M77.4511096,80.2630488 L79.539333,81.9803799 C80.5031284,82.7981566 79.4590167,84.1065994 78.4952213,83.2888227 L76.4069979,81.5714915 C75.4432025,80.7537148 76.4069979,79.3634944 77.4511096,80.2630488 L77.4511096,80.2630488 Z M82.9126169,85.0879315 L84.0370449,86.0692635 C84.35831,86.3963742 84.4386263,86.9688179 84.1173612,87.2959286 C83.796096,87.6230393 83.3141983,87.704817 82.9126169,87.3777063 L81.7881889,86.3963742 C81.4669238,86.0692635 81.3866075,85.4968198 81.7078726,85.1697091 C82.1094541,84.8425984 82.5913518,84.7608208 82.9126169,85.0879315 L82.9126169,85.0879315 Z M81.0653424,83.452378 L81.3062912,83.697711 C82.2700866,84.5154877 81.2259749,85.8239305 80.2621795,85.0061538 L80.0212307,84.7608208 C79.0574353,83.943044 80.0212307,82.5528236 81.0653424,83.452378 L81.0653424,83.452378 Z M71.5077046,93.2656988 L70.3029603,89.9128142 C69.9013789,88.7679267 71.4273883,88.0319277 71.909286,89.3403704 L73.1140303,92.693255 C73.5156117,93.8381425 71.9896023,94.5741415 71.5077046,93.2656988 L71.5077046,93.2656988 Z M69.4194812,87.3777063 L68.2950532,84.3519324 C68.1344207,83.943044 68.3753695,83.452378 68.7769509,83.2888227 C69.1785324,83.1252673 69.6604301,83.3706003 69.8210626,83.7794887 L70.9454906,86.8052626 C71.1061232,87.214151 70.8651743,87.704817 70.4635929,87.8683723 C70.0620115,88.1137054 69.5801138,87.8683723 69.4194812,87.3777063 L69.4194812,87.3777063 Z M56.8098246,86.1510412 L55.7657129,89.1768151 C55.3641315,90.4034802 57.0507735,90.6488132 57.3720386,89.7492588 L58.4161503,86.7234849 C58.8177317,85.4150421 57.1310898,85.0879315 56.8098246,86.1510412 L56.8098246,86.1510412 Z M54.9625501,91.2212569 L54.4003361,92.9385881 C54.079071,93.8381425 55.6853967,94.4923638 56.0066618,93.5110318 L56.5688758,91.7937006 C56.8098246,90.8123686 55.2838152,90.2399249 54.9625501,91.2212569 L54.9625501,91.2212569 Z M59.0586806,84.4337101 C58.898048,84.9243761 58.4161503,85.1697091 57.9342526,85.0061538 C57.4523549,84.8425984 57.2114061,84.3519324 57.3720386,83.8612664 C57.5326712,83.3706003 58.0145689,83.1252673 58.4964666,83.2888227 C58.9783643,83.5341557 59.2193131,84.0248217 59.0586806,84.4337101 L59.0586806,84.4337101 Z M44.4411169,84.9243761 L42.9954238,86.0692635 C42.192261,86.7234849 43.0757401,88.1137054 43.9592192,87.459484 L45.4852286,86.3145966 C46.3687077,85.6603752 45.4049123,84.1883771 44.4411169,84.9243761 L44.4411169,84.9243761 Z M81.6275564,40.8462104 L78.8164864,43.4630959 C77.852691,44.3626503 79.2180678,45.4257601 79.8605981,44.7715387 L82.9929332,41.9093202 C83.6354635,41.2550988 82.6716681,39.8648783 81.6275564,40.8462104 L81.6275564,40.8462104 Z M50.8664196,42.1546532 L48.6175637,39.2106569 C47.9750334,38.3928802 49.2600939,37.2479928 49.9829405,38.2293249 L52.2317964,41.1733211 C52.4727453,41.5822095 52.392429,42.0728755 52.0711639,42.3182085 C51.5892662,42.5635415 51.1073685,42.4817639 50.8664196,42.1546532 L50.8664196,42.1546532 Z M70.784858,35.1217733 L70.3029603,37.1662151 C69.9816952,38.4746579 71.6683372,38.5564356 71.909286,37.5751035 L72.4715,35.6124393 C72.7927651,34.3039966 71.1061232,34.1404412 70.784858,35.1217733 L70.784858,35.1217733 Z M69.6604301,39.2924346 L69.0178998,41.5822095 C68.6966346,42.6453192 70.3832766,42.8906522 70.6242255,41.9910978 L71.2667557,39.701323 C71.5880209,38.6382132 69.9013789,38.3928802 69.6604301,39.2924346 L69.6604301,39.2924346 Z M62.5925971,41.9093202 L61.4681691,37.8204365 C61.146904,36.5119937 59.6208946,37.3297705 59.8618434,38.3111025 L60.9862714,42.3999862 C61.3075365,43.6266513 62.8335459,42.9724299 62.5925971,41.9093202 L62.5925971,41.9093202 Z M60.9059551,35.694217 L60.58469,34.5493296 C60.2634248,33.4862198 58.7374154,34.1404412 58.9783643,35.0399956 L59.2996294,36.1848831 C59.6208946,37.1662151 61.2272202,36.5119937 60.9059551,35.694217 L60.9059551,35.694217 Z M46.7702891,43.2177629 C45.324596,43.4630959 44.9230146,46.4888698 45.4049123,47.5519796 C47.2521868,52.0497516 52.954643,51.3955302 56.4885595,50.9866418 L59.8618434,50.4959758 C59.0586806,55.5661915 57.2114061,66.6061774 56.6491921,69.8772843 C56.3279269,71.8399484 55.2838152,75.9288321 59.3799457,76.0106098 C60.58469,76.0106098 61.7091179,75.2746107 62.5925971,74.456834 C61.7894342,73.8843903 61.9500668,70.695061 62.5122808,66.6061774 C64.6005042,66.1155113 66.7690438,65.706623 68.7769509,67.0968434 C70.222644,68.0781755 70.8651743,69.8772843 70.7045417,72.3306145 C70.3832766,77.6461632 66.2068298,78.3003846 61.6288017,77.8097186 C59.3799457,77.5643855 54.8822338,76.0923874 51.1876848,76.4194981 C43.5576378,77.0737195 45.2442797,84.5972654 48.6175637,85.2514868 C51.268001,80.9990478 60.9862714,82.3892683 65.4839833,82.4710459 C70.3029603,82.4710459 73.9975094,80.3448264 75.6038351,76.6648311 C77.6117422,72.1670591 76.8085793,66.0337337 71.1061232,64.4799579 C73.595928,63.1715151 75.8447839,60.4728519 75.6841513,57.5288557 C75.6038351,54.7484148 73.5156117,52.2133069 70.784858,51.6408632 C68.0541044,51.1501972 64.6808205,52.5404176 65.7249321,55.7297469 C67.1706253,54.7484148 68.6966346,54.8301925 69.8210626,55.8115246 C70.9454906,56.7928566 71.1864395,58.2648547 70.784858,59.6550752 C70.3832766,61.0452956 69.4997975,62.3537384 68.2147369,63.1715151 C66.528095,64.3164025 64.7611367,64.2346249 62.9138622,63.9075142 C63.717025,58.9190761 64.7611367,53.2764167 65.403667,49.6781991 C69.2588486,49.2693107 74.4794071,48.9422 76.8085793,53.2764167 C79.8605981,52.5404176 80.9850261,44.689761 73.6762443,44.0355397 C67.4115741,43.4630959 61.7091179,45.5075378 55.9263455,45.9982038 C52.8743267,46.4070922 48.2962985,46.6524252 46.7702891,43.2177629 L46.7702891,43.2177629 Z" id="Shape" fill="#FFFFFF" sketch:type="MSShapeGroup"></path>
        </g>
    </g>
</svg>